<svg id="Capa_1" enable-background="new 0 0 511.995 511.995" height="512" viewBox="0 0 511.995 511.995" width="512" xmlns="http://www.w3.org/2000/svg" xmlns:xlink="http://www.w3.org/1999/xlink"><linearGradient id="SVGID_1_" gradientUnits="userSpaceOnUse" x1="255.997" x2="255.997" y1="360.991" y2="151.003"><stop offset="0" stop-color="#5558ff"/><stop offset="1" stop-color="#00c0ff"/></linearGradient><g><g><g><path d="m505.994 243.994-120-90c-5.098-3.809-12.012-3.984-17.285-.498-5.303 3.516-7.793 9.976-6.27 16.128l10.342 41.367h-357.781c-8.291 0-15 6.709-15 15v60c0 8.291 6.709 15 15 15h357.781l-10.342 41.367c-1.523 6.152.967 12.612 6.27 16.128 5.346 3.544 12.225 3.283 17.285-.498l120-90c8.006-5.989 7.996-18.013 0-23.994z" fill="url(#SVGID_1_)"/></g></g></g></svg>