<svg height="512pt" viewBox="0 0 512 512" width="512pt" xmlns="http://www.w3.org/2000/svg" xmlns:xlink="http://www.w3.org/1999/xlink"><linearGradient id="a" gradientTransform="matrix(1 0 0 -1 0 -13734)" gradientUnits="userSpaceOnUse" x1="0" x2="512" y1="-13990" y2="-13990"><stop offset="0" stop-color="#00f1ff"/><stop offset=".231" stop-color="#00d8ff"/><stop offset=".5138" stop-color="#00c0ff"/><stop offset=".7773" stop-color="#00b2ff"/><stop offset="1" stop-color="#00adff"/></linearGradient><path d="m512 256c0 141.386719-114.613281 256-256 256s-256-114.613281-256-256 114.613281-256 256-256 256 114.613281 256 256zm0 0" fill="url(#a)"/><path d="m408.5 313.648438c8.285156 0 15-6.714844 15-15v-156.378907c0-29.648437-24.121094-53.769531-53.769531-53.769531h-227.460938c-29.648437 0-53.769531 24.121094-53.769531 53.769531v227.460938c0 29.648437 24.121094 53.769531 53.769531 53.769531h227.460938c29.648437 0 53.769531-24.121094 53.769531-53.769531 0-8.285157-6.714844-15-15-15s-15 6.714843-15 15c0 13.105469-10.664062 23.769531-23.769531 23.769531h-98.730469v-122.5h122.5v27.648438c0 8.285156 6.714844 15 15 15zm-266.230469-195.148438h98.730469v122.5h-122.5v-98.730469c0-13.105469 10.664062-23.769531 23.769531-23.769531zm98.730469 275h-98.730469c-13.105469 0-23.769531-10.664062-23.769531-23.769531v-98.730469h122.5zm30-152.5v-122.5h98.730469c13.105469 0 23.769531 10.664062 23.769531 23.769531v98.730469zm0 0" fill="#fff"/></svg>